<svg xmlns="http://www.w3.org/2000/svg" viewBox="0 0 32 32">
  <defs>
    <linearGradient id="dropGrad" x1="20%" y1="0%" x2="80%" y2="100%">
      <stop offset="0%" stop-color="#1E88E5"/>
      <stop offset="55%" stop-color="#0D47A1"/>
      <stop offset="100%" stop-color="#071A4F"/>
    </linearGradient>
    <radialGradient id="shine" cx="38%" cy="35%" r="40%">
      <stop offset="0%" stop-color="rgba(255,255,255,0.45)"/>
      <stop offset="100%" stop-color="rgba(255,255,255,0)"/>
    </radialGradient>
  </defs>
  <!-- Water drop shape -->
  <path d="M16 2 C16 2 5 16 5 22.5 C5 28.3 10.1 31 16 31 C21.9 31 27 28.3 27 22.5 C27 16 16 2 16 2Z" fill="url(#dropGrad)"/>
  <!-- Shine highlight -->
  <path d="M16 2 C16 2 5 16 5 22.5 C5 28.3 10.1 31 16 31 C21.9 31 27 28.3 27 22.5 C27 16 16 2 16 2Z" fill="url(#shine)"/>
  <!-- Inner gloss -->
  <ellipse cx="12.5" cy="20" rx="3" ry="5.5" fill="rgba(255,255,255,0.22)" transform="rotate(-25 12.5 20)"/>
</svg>
